{"accessors":[{"bufferView":2,"componentType":5126,"count":1945,"max":[0.8211519718170166,0.89410001039505,1.5774279832839966],"min":[-1.6377209424972534,-1.1364190578460693,-0.12477800250053406],"type":"VEC3"},{"bufferView":2,"byteOffset":23340,"componentType":5126,"count":1945,"max":[1,1,1],"min":[-1,-1,-1],"type":"VEC3"},{"bufferView":1,"componentType":5126,"count":1945,"max":[0.9619699716567993,0.931672990322113],"min":[0.08782400190830231,0.1325100064277649],"type":"VEC2"},{"bufferView":0,"componentType":5125,"count":3924,"type":"SCALAR"}],"asset":{"extras":{"author":"Digital screen official (https://sketchfab.com/ck212575)","license":"SKETCHFAB Standard (https://sketchfab.com/licenses)","source":"https://sketchfab.com/3d-models/low-poly-house-3-d2722c2e056a48ca8c922298b7a9e88b","title":"low poly house 3"},"generator":"Sketchfab-16.12.0","version":"2.0"},"bufferViews":[{"buffer":0,"byteLength":15696,"name":"floatBufferViews","target":34963},{"buffer":0,"byteLength":15560,"byteOffset":15696,"byteStride":8,"name":"floatBufferViews","target":34962},{"buffer":0,"byteLength":46680,"byteOffset":31256,"byteStride":12,"name":"floatBufferViews","target":34962}],"buffers":[{"byteLength":77936,"uri":"data:application/octet-stream;base64,"}],"extensionsUsed":["KHR_materials_specular"],"images":[{"uri":"data:application/octet-stream;base64,"},{"uri":"data:application/octet-stream;base64,"}],"materials":[{"doubleSided":true,"extensions":{"KHR_materials_specular":{"specularColorFactor":[1,1,1],"specularFactor":1}},"name":"Material","pbrMetallicRoughness":{"baseColorTexture":{"index":0},"metallicFactor":0,"metallicRoughnessTexture":{"index":1}}}],"meshes":[{"name":"Object_0","primitives":[{"attributes":{"NORMAL":1,"POSITION":0,"TEXCOORD_0":2},"indices":3,"material":0,"mode":4}]}],"nodes":[{"children":[1],"matrix":[1,0,0,0,0,2.220446049250313e-16,-1,0,0,1,2.220446049250313e-16,0,0,0,0,1],"name":"Sketchfab_model"},{"children":[2],"name":"926a21d6318946c0b2d70e5266f75055.obj.cleaner.materialmerger.gles"},{"mesh":0,"name":"Object_2"}],"samplers":[{"magFilter":9729,"minFilter":9987,"wrapS":10497,"wrapT":10497}],"scene":0,"scenes":[{"name":"Sketchfab_Scene","nodes":[0]}],"textures":[{"sampler":0,"source":0},{"sampler":0,"source":1}]}